<svg width="92" height="40" viewBox="0 0 92 40" fill="none" xmlns="http://www.w3.org/2000/svg">
<rect width="92" height="40" fill="#A40A0A"/>
<path d="M23.978 26.144C23.474 26.144 22.922 26.114 22.322 26.054C21.734 26.006 21.212 25.934 20.756 25.838V23.822C21.98 23.918 22.826 23.966 23.294 23.966C23.714 23.966 24.032 23.942 24.248 23.894C24.464 23.846 24.626 23.762 24.734 23.642C24.83 23.546 24.89 23.414 24.914 23.246C24.95 23.066 24.968 22.814 24.968 22.49C24.968 22.046 24.944 21.734 24.896 21.554C24.848 21.362 24.746 21.224 24.59 21.14C24.446 21.044 24.188 20.96 23.816 20.888L22.124 20.582C21.524 20.474 21.11 20.144 20.882 19.592C20.654 19.04 20.54 18.242 20.54 17.198C20.54 16.178 20.684 15.398 20.972 14.858C21.272 14.318 21.68 13.952 22.196 13.76C22.712 13.568 23.366 13.472 24.158 13.472C24.71 13.472 25.238 13.508 25.742 13.58C26.258 13.652 26.678 13.724 27.002 13.796V15.812C26.354 15.704 25.628 15.65 24.824 15.65C24.392 15.65 24.056 15.668 23.816 15.704C23.588 15.74 23.42 15.806 23.312 15.902C23.18 15.998 23.096 16.136 23.06 16.316C23.024 16.496 23.006 16.76 23.006 17.108C23.006 17.48 23.024 17.75 23.06 17.918C23.108 18.086 23.186 18.206 23.294 18.278C23.402 18.35 23.588 18.41 23.852 18.458L25.436 18.746C25.856 18.806 26.21 18.938 26.498 19.142C26.798 19.334 27.032 19.658 27.2 20.114C27.368 20.594 27.452 21.272 27.452 22.148C27.452 23.288 27.314 24.146 27.038 24.722C26.762 25.298 26.378 25.682 25.886 25.874C25.406 26.054 24.77 26.144 23.978 26.144ZM28.9345 26V13.616H31.4005V26H28.9345ZM36.8754 20.924V18.8H40.2774V25.766C39.8574 25.874 39.3474 25.964 38.7474 26.036C38.1474 26.108 37.5894 26.144 37.0734 26.144C35.9334 26.144 35.0814 25.976 34.5174 25.64C33.9654 25.292 33.5814 24.68 33.3654 23.804C33.1614 22.916 33.0594 21.584 33.0594 19.808C33.0594 18.044 33.1674 16.724 33.3834 15.848C33.6114 14.96 34.0194 14.342 34.6074 13.994C35.1954 13.646 36.0774 13.472 37.2534 13.472C37.7334 13.472 38.2554 13.508 38.8194 13.58C39.3834 13.652 39.8634 13.736 40.2594 13.832V15.866C39.2274 15.722 38.4774 15.65 38.0094 15.65C37.1934 15.65 36.6294 15.716 36.3174 15.848C36.0174 15.98 35.8074 16.322 35.6874 16.874C35.5794 17.414 35.5254 18.392 35.5254 19.808C35.5254 21.128 35.5614 22.07 35.6334 22.634C35.7054 23.186 35.8434 23.558 36.0474 23.75C36.2634 23.942 36.6234 24.038 37.1274 24.038C37.2354 24.038 37.5234 24.02 37.9914 23.984V20.924H36.8754ZM47.3749 26L44.4949 19.214H44.4229V26H42.0649V13.616H44.4589L47.1409 19.88H47.2309V13.616H49.6069V26H47.3749ZM62.0116 13.616V20.51C62.0116 22.142 61.9396 23.33 61.7956 24.074C61.6636 24.806 61.3396 25.334 60.8236 25.658C60.3196 25.982 59.4856 26.144 58.3216 26.144C57.1576 26.144 56.3176 25.982 55.8016 25.658C55.2976 25.334 54.9736 24.806 54.8296 24.074C54.6976 23.33 54.6316 22.142 54.6316 20.51V13.616H57.0976V21.338C57.0976 22.214 57.1156 22.82 57.1516 23.156C57.1996 23.48 57.3016 23.696 57.4576 23.804C57.6256 23.912 57.9136 23.966 58.3216 23.966C58.7296 23.966 59.0116 23.912 59.1676 23.804C59.3236 23.696 59.4196 23.48 59.4556 23.156C59.5036 22.832 59.5276 22.226 59.5276 21.338V13.616H62.0116ZM63.809 13.616H67.895C68.771 13.616 69.431 13.772 69.875 14.084C70.331 14.396 70.637 14.852 70.793 15.452C70.949 16.04 71.027 16.826 71.027 17.81C71.027 18.758 70.955 19.532 70.811 20.132C70.667 20.72 70.367 21.188 69.911 21.536C69.455 21.872 68.777 22.04 67.877 22.04H66.293V26H63.809V13.616ZM67.265 19.862C67.673 19.862 67.961 19.814 68.129 19.718C68.297 19.622 68.405 19.442 68.453 19.178C68.513 18.902 68.543 18.446 68.543 17.81C68.543 17.174 68.513 16.724 68.453 16.46C68.405 16.196 68.297 16.022 68.129 15.938C67.973 15.842 67.691 15.794 67.283 15.794H66.293V19.862H67.265Z" fill="#D9D9D9"/>
</svg>
