<svg width="51" height="44" viewBox="0 0 51 44" fill="none" xmlns="http://www.w3.org/2000/svg">
<path d="M44.0743 27.3791L37.0064 25.9747L33.2589 20.3899L35.3707 14.092C35.5929 13.4347 35.527 12.718 35.1925 12.1104C34.8556 11.504 34.2818 11.0637 33.6056 10.8964L24.2795 8.58L17.2678 1.61507C16.7746 1.12269 16.0935 0.871647 15.3879 0.889839C14.6848 0.921371 14.0305 1.24518 13.5789 1.78122L1.07895 16.6837C0.327002 17.58 0.30503 18.8764 1.02768 19.7981L14.0232 36.3985C17.363 40.665 22.3972 43.1111 27.8366 43.1111H42.5044C46.9136 43.1111 50.5 39.548 50.5 35.1675C50.5 31.3946 47.7974 28.1189 44.0743 27.3791ZM42.5044 38.1436H27.8366C23.9523 38.1436 20.3537 36.396 17.9685 33.3496L6.20831 18.327L7.55168 16.7257L16.0471 27.276C16.5427 27.8897 17.2678 28.2087 18.0027 28.2087C18.5495 28.2087 19.1013 28.0304 19.5627 27.6641C20.6394 26.8079 20.8151 25.2446 19.9533 24.1738L10.8195 12.8306L15.6687 7.0507L21.2326 12.5785C21.5524 12.8975 21.9553 13.123 22.3947 13.2322L29.775 15.0647L28.1295 19.9715C27.8854 20.6992 27.9928 21.4972 28.4201 22.1351L33.42 29.5864C33.7887 30.1345 34.36 30.5153 35.0094 30.6439L43.0928 32.2496C44.4869 32.5273 45.5 33.7546 45.5 35.1675C45.5 36.8084 44.1573 38.1436 42.5044 38.1436Z" fill="black"/>
</svg>
