<svg width="433" height="103" viewBox="0 0 433 103" fill="none" xmlns="http://www.w3.org/2000/svg">
<rect width="5" height="96" fill="#A40A0A"/>
<path d="M26.5 45V30.85H19.45V45H12.6V10.6H19.45V24.5H26.5V10.6H33.35V45H26.5ZM48.5777 45.4C45.1111 45.4 42.6444 44.9 41.1777 43.9C39.7111 42.8667 38.7944 41.2333 38.4277 39C38.0611 36.7333 37.8777 33 37.8777 27.8C37.8777 22.5667 38.0611 18.8333 38.4277 16.6C38.7944 14.3667 39.7111 12.75 41.1777 11.75C42.6444 10.7167 45.1111 10.2 48.5777 10.2C52.0444 10.2 54.5111 10.7167 55.9777 11.75C57.4444 12.75 58.3611 14.3667 58.7277 16.6C59.0944 18.8333 59.2777 22.5667 59.2777 27.8C59.2777 33 59.0944 36.7333 58.7277 39C58.3611 41.2333 57.4444 42.8667 55.9777 43.9C54.5111 44.9 52.0444 45.4 48.5777 45.4ZM48.5777 39.35C49.9111 39.35 50.8111 39.1667 51.2777 38.8C51.7444 38.4333 52.0444 37.5333 52.1777 36.1C52.3111 34.6667 52.3777 31.9 52.3777 27.8C52.3777 23.7 52.3111 20.9333 52.1777 19.5C52.0444 18.0667 51.7444 17.1667 51.2777 16.8C50.8111 16.4333 49.9111 16.25 48.5777 16.25C47.2444 16.25 46.3444 16.4333 45.8777 16.8C45.4111 17.1667 45.1111 18.0667 44.9777 19.5C44.8444 20.9333 44.7777 23.7 44.7777 27.8C44.7777 31.9 44.8444 34.6667 44.9777 36.1C45.1111 37.5333 45.4111 38.4333 45.8777 38.8C46.3444 39.1667 47.2444 39.35 48.5777 39.35ZM83.3324 45L79.7824 21.05H79.4824L75.9824 45H66.5324L61.5824 10.6H68.5324L71.4824 37.55H71.8324L75.7324 10.6H83.8324L87.7824 37.55H88.1324L90.9324 10.6H97.7324L92.7324 45H83.3324ZM130.061 45L126.511 21.05H126.211L122.711 45H113.261L108.311 10.6H115.261L118.211 37.55H118.561L122.461 10.6H130.561L134.511 37.55H134.861L137.661 10.6H144.461L139.461 45H130.061ZM147.854 45V10.6H164.554V16.65H154.754V24.6H163.204V30.65H154.754V38.95H164.554V45H147.854ZM187.784 30.9V25H197.234V44.35C196.068 44.65 194.651 44.9 192.984 45.1C191.318 45.3 189.768 45.4 188.334 45.4C185.168 45.4 182.801 44.9333 181.234 44C179.701 43.0333 178.634 41.3333 178.034 38.9C177.468 36.4333 177.184 32.7333 177.184 27.8C177.184 22.9 177.484 19.2333 178.084 16.8C178.718 14.3333 179.851 12.6167 181.484 11.65C183.118 10.6833 185.568 10.2 188.834 10.2C190.168 10.2 191.618 10.3 193.184 10.5C194.751 10.7 196.084 10.9333 197.184 11.2V16.85C194.318 16.45 192.234 16.25 190.934 16.25C188.668 16.25 187.101 16.4333 186.234 16.8C185.401 17.1667 184.818 18.1167 184.484 19.65C184.184 21.15 184.034 23.8667 184.034 27.8C184.034 31.4667 184.134 34.0833 184.334 35.65C184.534 37.1833 184.918 38.2167 185.484 38.75C186.084 39.2833 187.084 39.55 188.484 39.55C188.784 39.55 189.584 39.5 190.884 39.4V30.9H187.784ZM212.25 45.4C208.783 45.4 206.316 44.9 204.85 43.9C203.383 42.8667 202.466 41.2333 202.1 39C201.733 36.7333 201.55 33 201.55 27.8C201.55 22.5667 201.733 18.8333 202.1 16.6C202.466 14.3667 203.383 12.75 204.85 11.75C206.316 10.7167 208.783 10.2 212.25 10.2C215.716 10.2 218.183 10.7167 219.65 11.75C221.116 12.75 222.033 14.3667 222.4 16.6C222.766 18.8333 222.95 22.5667 222.95 27.8C222.95 33 222.766 36.7333 222.4 39C222.033 41.2333 221.116 42.8667 219.65 43.9C218.183 44.9 215.716 45.4 212.25 45.4ZM212.25 39.35C213.583 39.35 214.483 39.1667 214.95 38.8C215.416 38.4333 215.716 37.5333 215.85 36.1C215.983 34.6667 216.05 31.9 216.05 27.8C216.05 23.7 215.983 20.9333 215.85 19.5C215.716 18.0667 215.416 17.1667 214.95 16.8C214.483 16.4333 213.583 16.25 212.25 16.25C210.916 16.25 210.016 16.4333 209.55 16.8C209.083 17.1667 208.783 18.0667 208.65 19.5C208.516 20.9333 208.45 23.7 208.45 27.8C208.45 31.9 208.516 34.6667 208.65 36.1C208.783 37.5333 209.083 38.4333 209.55 38.8C210.016 39.1667 210.916 39.35 212.25 39.35ZM231.893 45V16.85H225.393V10.6H245.293V16.85H238.793V45H231.893ZM265.044 45.4C263.644 45.4 262.111 45.3167 260.444 45.15C258.811 45.0167 257.361 44.8167 256.094 44.55V38.95C259.494 39.2167 261.844 39.35 263.144 39.35C264.311 39.35 265.194 39.2833 265.794 39.15C266.394 39.0167 266.844 38.7833 267.144 38.45C267.411 38.1833 267.577 37.8167 267.644 37.35C267.744 36.85 267.794 36.15 267.794 35.25C267.794 34.0167 267.727 33.15 267.594 32.65C267.461 32.1167 267.177 31.7333 266.744 31.5C266.344 31.2333 265.627 31 264.594 30.8L259.894 29.95C258.227 29.65 257.077 28.7333 256.444 27.2C255.811 25.6667 255.494 23.45 255.494 20.55C255.494 17.7167 255.894 15.55 256.694 14.05C257.527 12.55 258.661 11.5333 260.094 11C261.527 10.4667 263.344 10.2 265.544 10.2C267.077 10.2 268.544 10.3 269.944 10.5C271.377 10.7 272.544 10.9 273.444 11.1V16.7C271.644 16.4 269.627 16.25 267.394 16.25C266.194 16.25 265.261 16.3 264.594 16.4C263.961 16.5 263.494 16.6833 263.194 16.95C262.827 17.2167 262.594 17.6 262.494 18.1C262.394 18.6 262.344 19.3333 262.344 20.3C262.344 21.3333 262.394 22.0833 262.494 22.55C262.627 23.0167 262.844 23.35 263.144 23.55C263.444 23.75 263.961 23.9167 264.694 24.05L269.094 24.85C270.261 25.0167 271.244 25.3833 272.044 25.95C272.877 26.4833 273.527 27.3833 273.994 28.65C274.461 29.9833 274.694 31.8667 274.694 34.3C274.694 37.4667 274.311 39.85 273.544 41.45C272.777 43.05 271.711 44.1167 270.344 44.65C269.011 45.15 267.244 45.4 265.044 45.4ZM283.162 45V16.85H276.662V10.6H296.562V16.85H290.062V45H283.162ZM313.099 45L311.749 37.95H304.049L302.699 45H295.849L302.949 10.6H312.999L320.099 45H313.099ZM308.049 17.1H307.749L305.049 32H310.699L308.049 17.1ZM337.048 45L333.698 33H329.998V45H323.098V10.6H334.698C337.165 10.6 339.015 11.0167 340.248 11.85C341.515 12.6833 342.365 13.8833 342.798 15.45C343.231 17.0167 343.448 19.1167 343.448 21.75C343.448 24.25 343.215 26.3167 342.748 27.95C342.315 29.5833 341.415 30.8167 340.048 31.65L344.198 45H337.048ZM333.048 27.05C334.148 27.05 334.931 26.9333 335.398 26.7C335.865 26.4333 336.165 25.9667 336.298 25.3C336.465 24.6 336.548 23.4333 336.548 21.8C336.548 20.2 336.465 19.0667 336.298 18.4C336.165 17.7333 335.865 17.2833 335.398 17.05C334.931 16.7833 334.148 16.65 333.048 16.65H329.998V27.05H333.048ZM352.205 45V16.85H345.705V10.6H365.605V16.85H359.105V45H352.205ZM368.704 45V10.6H385.404V16.65H375.604V24.6H384.054V30.65H375.604V38.95H385.404V45H368.704ZM389.748 10.6H399.048C402.582 10.6 405.098 11.1 406.598 12.1C408.132 13.0667 409.082 14.65 409.448 16.85C409.815 19.0167 409.998 22.6667 409.998 27.8C409.998 32.9333 409.815 36.6 409.448 38.8C409.082 40.9667 408.132 42.55 406.598 43.55C405.098 44.5167 402.582 45 399.048 45H389.748V10.6ZM398.948 38.95C400.415 38.95 401.398 38.7833 401.898 38.45C402.432 38.0833 402.765 37.2 402.898 35.8C403.065 34.4 403.148 31.7333 403.148 27.8C403.148 23.9 403.065 21.25 402.898 19.85C402.732 18.4167 402.398 17.5333 401.898 17.2C401.398 16.8333 400.415 16.65 398.948 16.65H396.598V38.95H398.948ZM12.65 100V65.6H19.5V100H12.65ZM39.5082 100L31.5082 81.15H31.3082V100H24.7582V65.6H31.4082L38.8582 83H39.1082V65.6H45.7082V100H39.5082ZM64.2656 100V71.85H57.7656V65.6H77.6656V71.85H71.1656V100H64.2656ZM94.6641 100V85.85H87.6141V100H80.7641V65.6H87.6141V79.5H94.6641V65.6H101.514V100H94.6641ZM106.742 100V65.6H113.592V100H106.742ZM127.3 100.4C125.9 100.4 124.367 100.317 122.7 100.15C121.067 100.017 119.617 99.8167 118.35 99.55V93.95C121.75 94.2167 124.1 94.35 125.4 94.35C126.567 94.35 127.45 94.2833 128.05 94.15C128.65 94.0167 129.1 93.7833 129.4 93.45C129.667 93.1833 129.833 92.8167 129.9 92.35C130 91.85 130.05 91.15 130.05 90.25C130.05 89.0167 129.983 88.15 129.85 87.65C129.717 87.1167 129.433 86.7333 129 86.5C128.6 86.2333 127.883 86 126.85 85.8L122.15 84.95C120.483 84.65 119.333 83.7333 118.7 82.2C118.067 80.6667 117.75 78.45 117.75 75.55C117.75 72.7167 118.15 70.55 118.95 69.05C119.783 67.55 120.917 66.5333 122.35 66C123.783 65.4667 125.6 65.2 127.8 65.2C129.333 65.2 130.8 65.3 132.2 65.5C133.633 65.7 134.8 65.9 135.7 66.1V71.7C133.9 71.4 131.883 71.25 129.65 71.25C128.45 71.25 127.517 71.3 126.85 71.4C126.217 71.5 125.75 71.6833 125.45 71.95C125.083 72.2167 124.85 72.6 124.75 73.1C124.65 73.6 124.6 74.3333 124.6 75.3C124.6 76.3333 124.65 77.0833 124.75 77.55C124.883 78.0167 125.1 78.35 125.4 78.55C125.7 78.75 126.217 78.9167 126.95 79.05L131.35 79.85C132.517 80.0167 133.5 80.3833 134.3 80.95C135.133 81.4833 135.783 82.3833 136.25 83.65C136.717 84.9833 136.95 86.8667 136.95 89.3C136.95 92.4667 136.567 94.85 135.8 96.45C135.033 98.05 133.967 99.1167 132.6 99.65C131.267 100.15 129.5 100.4 127.3 100.4ZM149.954 65.6H161.754C164.454 65.6 166.47 66.3167 167.804 67.75C169.17 69.1833 169.854 71.35 169.854 74.25C169.854 76.6833 169.487 78.55 168.754 79.85C168.02 81.1167 166.87 81.95 165.304 82.35V82.55C167.037 82.9833 168.27 83.8167 169.004 85.05C169.77 86.2833 170.154 88.2 170.154 90.8C170.154 93.8333 169.504 96.1333 168.204 97.7C166.904 99.2333 164.754 100 161.754 100H149.954V65.6ZM159.904 79.65C160.77 79.65 161.42 79.55 161.854 79.35C162.32 79.15 162.637 78.7667 162.804 78.2C163.004 77.6333 163.104 76.7833 163.104 75.65C163.104 74.45 163.02 73.5833 162.854 73.05C162.687 72.4833 162.387 72.1167 161.954 71.95C161.52 71.75 160.837 71.65 159.904 71.65H156.754V79.65H159.904ZM160.054 93.95C160.987 93.95 161.67 93.85 162.104 93.65C162.537 93.45 162.837 93.0667 163.004 92.5C163.17 91.9333 163.254 91.0333 163.254 89.8C163.254 88.5667 163.17 87.6667 163.004 87.1C162.837 86.5 162.52 86.1 162.054 85.9C161.62 85.7 160.954 85.6 160.054 85.6H156.754V93.95H160.054ZM194.668 65.6V84.75C194.668 89.2833 194.468 92.5833 194.068 94.65C193.701 96.6833 192.801 98.15 191.368 99.05C189.968 99.95 187.651 100.4 184.418 100.4C181.184 100.4 178.851 99.95 177.418 99.05C176.018 98.15 175.118 96.6833 174.718 94.65C174.351 92.5833 174.168 89.2833 174.168 84.75V65.6H181.018V87.05C181.018 89.4833 181.068 91.1667 181.168 92.1C181.301 93 181.584 93.6 182.018 93.9C182.484 94.2 183.284 94.35 184.418 94.35C185.551 94.35 186.334 94.2 186.768 93.9C187.201 93.6 187.468 93 187.568 92.1C187.701 91.2 187.768 89.5167 187.768 87.05V65.6H194.668ZM208.111 100.4C206.711 100.4 205.177 100.317 203.511 100.15C201.877 100.017 200.427 99.8167 199.161 99.55V93.95C202.561 94.2167 204.911 94.35 206.211 94.35C207.377 94.35 208.261 94.2833 208.861 94.15C209.461 94.0167 209.911 93.7833 210.211 93.45C210.477 93.1833 210.644 92.8167 210.711 92.35C210.811 91.85 210.861 91.15 210.861 90.25C210.861 89.0167 210.794 88.15 210.661 87.65C210.527 87.1167 210.244 86.7333 209.811 86.5C209.411 86.2333 208.694 86 207.661 85.8L202.961 84.95C201.294 84.65 200.144 83.7333 199.511 82.2C198.877 80.6667 198.561 78.45 198.561 75.55C198.561 72.7167 198.961 70.55 199.761 69.05C200.594 67.55 201.727 66.5333 203.161 66C204.594 65.4667 206.411 65.2 208.611 65.2C210.144 65.2 211.611 65.3 213.011 65.5C214.444 65.7 215.611 65.9 216.511 66.1V71.7C214.711 71.4 212.694 71.25 210.461 71.25C209.261 71.25 208.327 71.3 207.661 71.4C207.027 71.5 206.561 71.6833 206.261 71.95C205.894 72.2167 205.661 72.6 205.561 73.1C205.461 73.6 205.411 74.3333 205.411 75.3C205.411 76.3333 205.461 77.0833 205.561 77.55C205.694 78.0167 205.911 78.35 206.211 78.55C206.511 78.75 207.027 78.9167 207.761 79.05L212.161 79.85C213.327 80.0167 214.311 80.3833 215.111 80.95C215.944 81.4833 216.594 82.3833 217.061 83.65C217.527 84.9833 217.761 86.8667 217.761 89.3C217.761 92.4667 217.377 94.85 216.611 96.45C215.844 98.05 214.777 99.1167 213.411 99.65C212.077 100.15 210.311 100.4 208.111 100.4ZM221.879 100V65.6H228.729V100H221.879ZM248.737 100L240.737 81.15H240.537V100H233.987V65.6H240.637L248.087 83H248.337V65.6H254.937V100H248.737ZM260.159 100V65.6H276.859V71.65H267.059V79.6H275.509V85.65H267.059V93.95H276.859V100H260.159ZM289.654 100.4C288.254 100.4 286.72 100.317 285.054 100.15C283.42 100.017 281.97 99.8167 280.704 99.55V93.95C284.104 94.2167 286.454 94.35 287.754 94.35C288.92 94.35 289.804 94.2833 290.404 94.15C291.004 94.0167 291.454 93.7833 291.754 93.45C292.02 93.1833 292.187 92.8167 292.254 92.35C292.354 91.85 292.404 91.15 292.404 90.25C292.404 89.0167 292.337 88.15 292.204 87.65C292.07 87.1167 291.787 86.7333 291.354 86.5C290.954 86.2333 290.237 86 289.204 85.8L284.504 84.95C282.837 84.65 281.687 83.7333 281.054 82.2C280.42 80.6667 280.104 78.45 280.104 75.55C280.104 72.7167 280.504 70.55 281.304 69.05C282.137 67.55 283.27 66.5333 284.704 66C286.137 65.4667 287.954 65.2 290.154 65.2C291.687 65.2 293.154 65.3 294.554 65.5C295.987 65.7 297.154 65.9 298.054 66.1V71.7C296.254 71.4 294.237 71.25 292.004 71.25C290.804 71.25 289.87 71.3 289.204 71.4C288.57 71.5 288.104 71.6833 287.804 71.95C287.437 72.2167 287.204 72.6 287.104 73.1C287.004 73.6 286.954 74.3333 286.954 75.3C286.954 76.3333 287.004 77.0833 287.104 77.55C287.237 78.0167 287.454 78.35 287.754 78.55C288.054 78.75 288.57 78.9167 289.304 79.05L293.704 79.85C294.87 80.0167 295.854 80.3833 296.654 80.95C297.487 81.4833 298.137 82.3833 298.604 83.65C299.07 84.9833 299.304 86.8667 299.304 89.3C299.304 92.4667 298.92 94.85 298.154 96.45C297.387 98.05 296.32 99.1167 294.954 99.65C293.62 100.15 291.854 100.4 289.654 100.4ZM311.821 100.4C310.421 100.4 308.888 100.317 307.221 100.15C305.588 100.017 304.138 99.8167 302.871 99.55V93.95C306.271 94.2167 308.621 94.35 309.921 94.35C311.088 94.35 311.971 94.2833 312.571 94.15C313.171 94.0167 313.621 93.7833 313.921 93.45C314.188 93.1833 314.355 92.8167 314.421 92.35C314.521 91.85 314.571 91.15 314.571 90.25C314.571 89.0167 314.505 88.15 314.371 87.65C314.238 87.1167 313.955 86.7333 313.521 86.5C313.121 86.2333 312.405 86 311.371 85.8L306.671 84.95C305.005 84.65 303.855 83.7333 303.221 82.2C302.588 80.6667 302.271 78.45 302.271 75.55C302.271 72.7167 302.671 70.55 303.471 69.05C304.305 67.55 305.438 66.5333 306.871 66C308.305 65.4667 310.121 65.2 312.321 65.2C313.855 65.2 315.321 65.3 316.721 65.5C318.155 65.7 319.321 65.9 320.221 66.1V71.7C318.421 71.4 316.405 71.25 314.171 71.25C312.971 71.25 312.038 71.3 311.371 71.4C310.738 71.5 310.271 71.6833 309.971 71.95C309.605 72.2167 309.371 72.6 309.271 73.1C309.171 73.6 309.121 74.3333 309.121 75.3C309.121 76.3333 309.171 77.0833 309.271 77.55C309.405 78.0167 309.621 78.35 309.921 78.55C310.221 78.75 310.738 78.9167 311.471 79.05L315.871 79.85C317.038 80.0167 318.021 80.3833 318.821 80.95C319.655 81.4833 320.305 82.3833 320.771 83.65C321.238 84.9833 321.471 86.8667 321.471 89.3C321.471 92.4667 321.088 94.85 320.321 96.45C319.555 98.05 318.488 99.1167 317.121 99.65C315.788 100.15 314.021 100.4 311.821 100.4Z" fill="black"/>
</svg>
