<svg width="30" height="31" viewBox="0 0 30 31" fill="none" xmlns="http://www.w3.org/2000/svg">
<path d="M15 0.5C6.71512 0.5 0 7.21512 0 15.5C0 23.7849 6.71512 30.5 15 30.5C23.2849 30.5 30 23.7849 30 15.5C30 7.21512 23.2849 0.5 15 0.5ZM10.4302 23.3663H6.77616V11.6192H10.4302V23.3663ZM8.59884 10.0058C7.43023 10.0058 6.47965 9.05523 6.47965 7.88663C6.47965 6.71802 7.43023 5.76744 8.59884 5.76744C9.76744 5.76744 10.718 6.71802 10.718 7.88663C10.718 9.05523 9.76744 10.0058 8.59884 10.0058ZM24.0959 23.3663H20.4506V17.6541C20.4506 16.2936 20.4244 14.5407 18.5494 14.5407C16.6483 14.5407 16.3605 16.0233 16.3605 17.5581V23.375H12.7151V11.6192H16.2209V13.2238H16.2645C16.9797 12.0029 18.3052 11.2703 19.718 11.3227C23.4157 11.3227 24.0959 13.7558 24.0959 16.9215V23.3663Z" fill="white"/>
</svg>
