<svg width="202" height="52" viewBox="0 0 202 52" fill="none" xmlns="http://www.w3.org/2000/svg">
<g clip-path="url(#clip0_14_88)">
<path d="M40.4548 14.0231L40.3893 13.8079C39.4224 10.6427 37.0714 7.94489 33.8519 6.30629C30.6325 4.66769 26.8075 4.22208 23.216 5.0672L13.5424 7.35449C9.95321 8.20721 6.89406 10.2805 5.03598 13.1197C3.1779 15.9588 2.67261 19.332 3.63093 22.4993L7.19338 34.2168C8.04072 37.023 9.85285 39.529 12.3807 41.3901L13.8517 42.4772L14.2443 43.7684C14.7956 45.5775 16.139 47.1194 17.9791 48.0553C19.8192 48.9912 22.0054 49.2444 24.0572 48.7593L41.4651 44.6432C43.5177 44.1579 45.2675 42.9734 46.3298 41.3503C47.392 39.7272 47.6796 37.7984 47.1293 35.9883L46.7969 34.895L47.5368 33.8296C48.6658 32.1938 49.4076 30.3734 49.7176 28.478C50.0275 26.5827 49.8992 24.6516 49.3404 22.8011L48.2643 19.2616C47.8023 17.7494 46.7849 16.415 45.3712 15.4673C43.9574 14.5195 42.2273 14.0119 40.4515 14.0239L40.4548 14.0231ZM40.4306 41.2292L23.0194 45.346C22.5114 45.4661 21.9815 45.4968 21.46 45.4364C20.9384 45.3759 20.4356 45.2254 19.98 44.9936C19.0599 44.5253 18.3885 43.7538 18.1134 42.849L43.2638 36.9023C43.4 37.3504 43.4348 37.8179 43.3662 38.2779C43.2975 38.7379 43.1268 39.1815 42.8637 39.5833C42.6006 39.9852 42.2503 40.3373 41.8328 40.6197C41.4153 40.9021 40.9389 41.1092 40.4306 41.2292ZM45.4748 23.7151C45.8933 25.1031 45.989 26.5514 45.7561 27.9728C45.5233 29.3943 44.9667 30.7595 44.1199 31.9863L43.2445 33.2482L16.241 39.6331L14.9524 38.6813C13.0557 37.2838 11.6961 35.4027 11.0604 33.2963L9.296 27.4928C10.6541 27.8161 12.085 27.8168 13.4435 27.4948L26.9859 24.2928C27.499 24.1715 27.9363 23.8754 28.2018 23.4697C28.4673 23.064 28.5392 22.5819 28.4017 22.1295C28.2641 21.677 27.9284 21.2913 27.4684 21.0572C27.0083 20.823 26.4617 20.7597 25.9486 20.881L12.4079 24.0826C11.8996 24.203 11.3694 24.2339 10.8476 24.1735C10.3258 24.113 9.82259 23.9625 9.36677 23.7305C8.91096 23.4985 8.51145 23.1896 8.19109 22.8214C7.87073 22.4531 7.6358 22.0329 7.49972 21.5845C6.81511 19.3221 7.17602 16.9125 8.50329 14.8844C9.83056 12.8564 12.0158 11.3754 14.5797 10.7663L24.2533 8.47901C26.8188 7.87526 29.5511 8.19354 31.8508 9.36403C34.1505 10.5345 35.8299 12.4617 36.5205 14.7227L36.586 14.9379C35.0416 15.7109 33.8315 16.9138 33.145 18.3581C32.4586 19.8024 32.3345 21.4067 32.7924 22.9199L34.3483 28.0376C34.4858 28.49 34.8216 28.8757 35.2816 29.1099C35.7416 29.344 36.2883 29.4074 36.8013 29.2861C37.3144 29.1648 37.7517 28.8687 38.0172 28.463C38.2827 28.0573 38.3546 27.5752 38.2171 27.1228L36.6612 22.0051C36.386 21.1 36.5298 20.1357 37.0609 19.3241C37.592 18.5125 38.467 17.9203 39.4933 17.6776C40.5195 17.435 41.6131 17.5618 42.5334 18.0302C43.4536 18.4985 44.1252 19.2701 44.4004 20.1752L45.4748 23.7151Z" fill="#A40A0A"/>
</g>
<path d="M56.664 20.984H64.216C65.944 20.984 67.2347 21.4427 68.088 22.36C68.9627 23.2773 69.4 24.664 69.4 26.52C69.4 28.0773 69.1653 29.272 68.696 30.104C68.2267 30.9147 67.4907 31.448 66.488 31.704V31.832C67.5973 32.1093 68.3867 32.6427 68.856 33.432C69.3467 34.2213 69.592 35.448 69.592 37.112C69.592 39.0533 69.176 40.5253 68.344 41.528C67.512 42.5093 66.136 43 64.216 43H56.664V20.984ZM63.032 29.976C63.5867 29.976 64.0027 29.912 64.28 29.784C64.5787 29.656 64.7813 29.4107 64.888 29.048C65.016 28.6853 65.08 28.1413 65.08 27.416C65.08 26.648 65.0267 26.0933 64.92 25.752C64.8133 25.3893 64.6213 25.1547 64.344 25.048C64.0667 24.92 63.6293 24.856 63.032 24.856H61.016V29.976H63.032ZM63.128 39.128C63.7253 39.128 64.1627 39.064 64.44 38.936C64.7173 38.808 64.9093 38.5627 65.016 38.2C65.1227 37.8373 65.176 37.2613 65.176 36.472C65.176 35.6827 65.1227 35.1067 65.016 34.744C64.9093 34.36 64.7067 34.104 64.408 33.976C64.1307 33.848 63.704 33.784 63.128 33.784H61.016V39.128H63.128ZM78.721 43.256C76.5023 43.256 74.9237 42.936 73.985 42.296C73.0463 41.6347 72.4597 40.5893 72.225 39.16C71.9903 37.7093 71.873 35.32 71.873 31.992C71.873 28.6427 71.9903 26.2533 72.225 24.824C72.4597 23.3947 73.0463 22.36 73.985 21.72C74.9237 21.0587 76.5023 20.728 78.721 20.728C80.9397 20.728 82.5183 21.0587 83.457 21.72C84.3957 22.36 84.9823 23.3947 85.217 24.824C85.4517 26.2533 85.569 28.6427 85.569 31.992C85.569 35.32 85.4517 37.7093 85.217 39.16C84.9823 40.5893 84.3957 41.6347 83.457 42.296C82.5183 42.936 80.9397 43.256 78.721 43.256ZM78.721 39.384C79.5743 39.384 80.1503 39.2667 80.449 39.032C80.7477 38.7973 80.9397 38.2213 81.025 37.304C81.1103 36.3867 81.153 34.616 81.153 31.992C81.153 29.368 81.1103 27.5973 81.025 26.68C80.9397 25.7627 80.7477 25.1867 80.449 24.952C80.1503 24.7173 79.5743 24.6 78.721 24.6C77.8677 24.6 77.2917 24.7173 76.993 24.952C76.6943 25.1867 76.5023 25.7627 76.417 26.68C76.3317 27.5973 76.289 29.368 76.289 31.992C76.289 34.616 76.3317 36.3867 76.417 37.304C76.5023 38.2213 76.6943 38.7973 76.993 39.032C77.2917 39.2667 77.8677 39.384 78.721 39.384ZM97.0995 43L94.2515 35.096H93.9955L91.1795 43H86.5715L91.1795 31.928L86.6355 20.984H91.3715L94.1555 28.568H94.3795L97.1635 20.984H101.772L97.2915 31.8L101.868 43H97.0995ZM113.37 42.712C112.922 42.8613 112.335 42.9893 111.61 43.096C110.906 43.2027 110.234 43.256 109.594 43.256C107.588 43.256 106.116 42.9253 105.178 42.264C104.239 41.6027 103.61 40.504 103.29 38.968C102.991 37.432 102.842 35.1067 102.842 31.992C102.842 28.8987 103.002 26.584 103.322 25.048C103.642 23.4907 104.271 22.3813 105.21 21.72C106.17 21.0587 107.631 20.728 109.594 20.728C110.298 20.728 110.991 20.7813 111.674 20.888C112.378 20.9733 112.922 21.0907 113.306 21.24V24.824C112.068 24.6747 111.13 24.6 110.49 24.6C109.402 24.6 108.644 24.7493 108.218 25.048C107.812 25.3253 107.546 25.9333 107.418 26.872C107.311 27.8107 107.258 29.5173 107.258 31.992C107.258 34.4667 107.311 36.1733 107.418 37.112C107.546 38.0507 107.812 38.6693 108.218 38.968C108.644 39.2453 109.402 39.384 110.49 39.384C111.471 39.384 112.431 39.3093 113.37 39.16V42.712ZM124.841 43V33.944H120.329V43H115.945V20.984H120.329V29.88H124.841V20.984H129.225V43H124.841ZM142.171 43L141.307 38.488H136.379L135.515 43H131.131L135.675 20.984H142.107L146.651 43H142.171ZM138.939 25.144H138.747L137.019 34.68H140.635L138.939 25.144ZM163.482 43V26.776H163.29L160.122 43H156.058L152.954 26.776H152.698V43H148.57V20.984H155.226L158.106 36.216H158.33L161.178 20.984H167.738V43H163.482ZM171.07 20.984H178.334C179.892 20.984 181.065 21.2613 181.854 21.816C182.665 22.3707 183.209 23.1813 183.486 24.248C183.764 25.2933 183.902 26.6907 183.902 28.44C183.902 30.1253 183.774 31.5013 183.518 32.568C183.262 33.6133 182.729 34.4453 181.918 35.064C181.108 35.6613 179.902 35.96 178.302 35.96H175.486V43H171.07V20.984ZM177.214 32.088C177.94 32.088 178.452 32.0027 178.75 31.832C179.049 31.6613 179.241 31.3413 179.326 30.872C179.433 30.3813 179.486 29.5707 179.486 28.44C179.486 27.3093 179.433 26.5093 179.326 26.04C179.241 25.5707 179.049 25.2613 178.75 25.112C178.473 24.9413 177.972 24.856 177.246 24.856H175.486V32.088H177.214ZM189.654 43V35.384L184.438 20.984H188.95L191.83 30.488H192.118L194.902 20.984H199.254L194.038 35.384V43H189.654Z" fill="white"/>
<defs>
<clipPath id="clip0_14_88">
<rect width="55" height="51" fill="white" transform="translate(0 0.5)"/>
</clipPath>
</defs>
</svg>
