<svg width="73" height="73" viewBox="0 0 73 73" fill="none" xmlns="http://www.w3.org/2000/svg">
<path d="M13.6287 42.53H10.2537C9.95535 42.53 9.66921 42.4114 9.45823 42.2005C9.24725 41.9895 9.12872 41.7033 9.12872 41.405V31.595C9.12872 31.2966 9.24725 31.0105 9.45823 30.7995C9.66921 30.5885 9.95535 30.47 10.2537 30.47H13.6287C13.9271 30.47 14.2132 30.5885 14.4242 30.7995C14.6352 31.0105 14.7537 31.2966 14.7537 31.595V41.405C14.7537 41.7033 14.6352 41.9895 14.4242 42.2005C14.2132 42.4114 13.9271 42.53 13.6287 42.53ZM11.3787 40.28H12.5037V32.72H11.3787V40.28Z" fill="#231F20"/>
<path d="M18.1287 45.0387H13.6287C13.3304 45.0387 13.0442 44.9202 12.8332 44.7092C12.6222 44.4983 12.5037 44.2121 12.5037 43.9137V29.0862C12.5037 28.7879 12.6222 28.5017 12.8332 28.2907C13.0442 28.0798 13.3304 27.9612 13.6287 27.9612H18.1287C18.2765 27.9612 18.4227 27.9903 18.5592 28.0469C18.6957 28.1034 18.8198 28.1863 18.9242 28.2907C19.0287 28.3952 19.1116 28.5192 19.1681 28.6557C19.2246 28.7922 19.2537 28.9385 19.2537 29.0862V43.9137C19.2537 44.0615 19.2246 44.2078 19.1681 44.3443C19.1116 44.4808 19.0287 44.6048 18.9242 44.7092C18.8198 44.8137 18.6957 44.8966 18.5592 44.9531C18.4227 45.0096 18.2765 45.0387 18.1287 45.0387ZM14.7537 42.7887H17.0037V30.2112H14.7537V42.7887Z" fill="#231F20"/>
<path d="M25.61 47.75H18.1287C17.8304 47.75 17.5442 47.6315 17.3332 47.4205C17.1222 47.2095 17.0037 46.9234 17.0037 46.625V26.375C17.0037 26.0766 17.1222 25.7905 17.3332 25.5795C17.5442 25.3685 17.8304 25.25 18.1287 25.25H25.61C25.9083 25.25 26.1945 25.3685 26.4055 25.5795C26.6164 25.7905 26.735 26.0766 26.735 26.375V46.625C26.735 46.9234 26.6164 47.2095 26.4055 47.4205C26.1945 47.6315 25.9083 47.75 25.61 47.75ZM19.2537 45.5H24.485V27.5H19.2537V45.5Z" fill="#231F20"/>
<path d="M62.7463 42.53H59.3713C59.0729 42.53 58.7868 42.4114 58.5758 42.2005C58.3648 41.9895 58.2463 41.7033 58.2463 41.405V31.595C58.2463 31.2966 58.3648 31.0105 58.5758 30.7995C58.7868 30.5885 59.0729 30.47 59.3713 30.47H62.7463C63.0446 30.47 63.3308 30.5885 63.5418 30.7995C63.7527 31.0105 63.8713 31.2966 63.8713 31.595V41.405C63.8713 41.7033 63.7527 41.9895 63.5418 42.2005C63.3308 42.4114 63.0446 42.53 62.7463 42.53ZM60.4963 40.28H61.6213V32.72H60.4963V40.28Z" fill="#231F20"/>
<path d="M59.36 45.0387H54.86C54.5616 45.0387 54.2755 44.9202 54.0645 44.7092C53.8535 44.4983 53.735 44.2121 53.735 43.9137V29.0862C53.735 28.7879 53.8535 28.5017 54.0645 28.2907C54.2755 28.0798 54.5616 27.9612 54.86 27.9612H59.36C59.6584 27.9612 59.9445 28.0798 60.1555 28.2907C60.3665 28.5017 60.485 28.7879 60.485 29.0862V43.9137C60.485 44.2121 60.3665 44.4983 60.1555 44.7092C59.9445 44.9202 59.6584 45.0387 59.36 45.0387ZM55.985 42.7887H58.235V30.2112H55.985V42.7887Z" fill="#231F20"/>
<path d="M54.86 47.75H47.3787C47.0804 47.75 46.7942 47.6315 46.5832 47.4205C46.3723 47.2095 46.2537 46.9234 46.2537 46.625V26.375C46.2537 26.0766 46.3723 25.7905 46.5832 25.5795C46.7942 25.3685 47.0804 25.25 47.3787 25.25H54.86C55.1583 25.25 55.4445 25.3685 55.6555 25.5795C55.8664 25.7905 55.985 26.0766 55.985 26.375V46.625C55.985 46.9234 55.8664 47.2095 55.6555 47.4205C55.4445 47.6315 55.1583 47.75 54.86 47.75ZM48.5037 45.5H53.735V27.5H48.5037V45.5Z" fill="#231F20"/>
<path d="M47.3787 39.875H25.61C25.3116 39.875 25.0255 39.7565 24.8145 39.5455C24.6035 39.3345 24.485 39.0484 24.485 38.75V34.25C24.485 33.9516 24.6035 33.6655 24.8145 33.4545C25.0255 33.2435 25.3116 33.125 25.61 33.125H47.3787C47.6771 33.125 47.9633 33.2435 48.1742 33.4545C48.3852 33.6655 48.5037 33.9516 48.5037 34.25V38.75C48.5037 39.0484 48.3852 39.3345 48.1742 39.5455C47.9633 39.7565 47.6771 39.875 47.3787 39.875ZM26.735 37.625H46.2537V35.375H26.735V37.625Z" fill="#231F20"/>
</svg>
