<svg width="58" height="58" viewBox="0 0 58 58" fill="none" xmlns="http://www.w3.org/2000/svg">
<path d="M56.8545 30.5479H56.6285H30.5358L32.4679 29.3794C32.5066 29.3529 34.8821 27.7965 35.9684 26.2595C36.1026 26.0408 36.1992 25.8016 36.314 25.5708C37.2142 24.0724 37.7374 22.3216 37.7374 20.4462C37.7374 14.9387 33.2702 10.4727 27.7626 10.4727C26.3634 10.4727 25.0439 10.782 23.838 11.3052C23.1831 11.6266 21.9179 12.3045 21.9179 12.3045L16.4732 15.6177L6.74368 21.019H6.75335C4.42851 22.2624 2.57614 24.2658 1.56476 26.7247L1.55872 26.7078C1.55872 26.7078 -0.512363 30.7231 0.351595 35.6483C0.357637 35.6857 0.367304 35.7232 0.373345 35.7643C0.415637 35.9914 0.45672 36.2198 0.512304 36.453C0.513512 36.4482 0.515929 36.4458 0.518345 36.4409C0.702012 37.2155 0.961804 37.9816 1.31947 38.7307C1.31947 38.7307 1.45601 39.0074 1.69647 39.4267C1.77743 39.5681 1.8596 39.7095 1.9466 39.8497C2.49518 40.7511 3.42318 42.0162 4.61218 43.123C5.2381 43.668 6.60472 44.8038 7.85414 45.4382C9.88655 46.429 13.1092 47.4464 17.7891 47.5153V47.5274H17.9147H18.2639H27.8388H42.9586H43.1931L56.6333 32.097L56.6358 32.0897L56.8593 31.836V31.8106L57.8646 30.5479H56.8545ZM42.7085 44.5005H17.9111V44.515C16.3499 44.5054 12.8748 44.3217 9.62676 43.007C9.37905 42.8934 9.13255 42.775 8.90539 42.6482C8.8933 42.6409 8.88243 42.6337 8.87155 42.6264C8.56101 42.45 8.2698 42.2603 8.00035 42.0549C8.00035 42.0573 8.00035 42.0597 7.99914 42.0645C7.92905 42.0102 7.8493 41.9606 7.78285 41.9038C7.76593 41.8917 7.76351 41.8845 7.74901 41.8712C7.6318 41.7866 7.51218 41.7032 7.39739 41.6138C7.12551 41.4012 6.87901 41.1885 6.6446 40.9746C6.63493 40.9674 6.62405 40.9577 6.6156 40.9492C4.69797 39.1863 3.97901 37.4584 3.97901 37.4584C3.58147 36.627 3.33497 35.7643 3.2238 34.8979C3.2238 34.8955 3.2226 34.8955 3.22139 34.8955C3.22139 34.8907 3.22139 34.8858 3.22018 34.8786C3.1803 34.5692 3.15735 34.2599 3.15251 33.9506C2.9036 29.9341 4.51189 27.3217 4.51189 27.3217L4.51914 27.3277C5.90268 24.5244 8.7773 22.5886 12.1159 22.5886C16.4502 22.5886 20.0196 25.8402 20.5344 30.0356C20.5525 30.3413 20.5863 31.3502 20.3108 31.9931C19.9749 32.8727 19.3248 34.1777 18.2289 34.9462C18.1431 35.0151 18.0501 35.0852 17.9353 35.1589C17.8966 35.1831 17.8567 35.1939 17.8168 35.2205C17.8048 35.2278 17.7951 35.2374 17.783 35.2447C17.7697 35.2519 17.7552 35.2544 17.7407 35.2592C15.6382 36.4893 13.5055 35.722 13.5055 35.722L13.5067 35.7147C13.0476 35.6108 12.615 35.4368 12.2331 35.1843C12.1884 35.1541 12.1449 35.1178 12.1014 35.0876C11.1384 34.3916 10.5052 33.2642 10.5052 31.9882C10.5052 30.5503 11.3051 29.3154 12.4748 28.6617L12.4688 28.6508C12.4688 28.6508 13.4608 27.9162 14.6764 28.3657C14.6909 28.3693 14.6969 28.3753 14.7114 28.3814C14.7296 28.3886 14.7441 28.3959 14.7622 28.4055C15.0256 28.5155 15.1754 28.623 15.2395 28.7269C15.6431 29.081 15.9125 29.5849 15.9125 30.1649C15.9125 30.7654 15.6201 31.2753 15.1863 31.6245C14.825 31.8807 14.5737 32.2807 14.5737 32.7567C14.5737 33.5361 15.2056 34.1681 15.9838 34.1681C16.414 34.1681 16.7801 33.9602 17.0338 33.6533L17.0387 33.6569C17.0387 33.6569 17.5341 33.0782 17.7395 32.8063C17.7552 32.7821 17.7721 32.7628 17.7891 32.7398C17.7975 32.7277 17.8156 32.7048 17.8217 32.6951C17.8241 32.6915 17.8205 32.6867 17.8217 32.6806C18.3123 31.9604 18.6119 31.1037 18.6119 30.1637C18.6119 27.6068 16.5384 25.5321 13.9816 25.5321C13.8209 25.5321 13.6698 25.572 13.514 25.5901V25.5853C13.4995 25.5865 13.485 25.5925 13.4693 25.5937C13.1527 25.6324 12.8494 25.6977 12.557 25.7967C9.84789 26.5713 7.85535 29.0266 7.85535 31.9834C7.85535 34.5257 9.33072 36.6983 11.4574 37.7629L11.4453 37.7846C11.4453 37.7846 11.5396 37.8245 11.6821 37.8837C11.7788 37.9284 11.8743 37.9659 11.9721 38.0069C12.4023 38.1834 12.9799 38.4105 13.2252 38.4673C13.2252 38.4673 16.7898 39.527 20.8957 36.8312L20.8969 36.8409L21.2014 36.6355C21.205 36.6307 21.2086 36.6282 21.2123 36.6282L23.1988 35.2882L26.541 33.1217H52.4586L42.7085 44.5005Z" fill="#241F20"/>
</svg>
